<svg width="32" height="32" viewBox="0 0 32 32" xmlns="http://www.w3.org/2000/svg">
  <defs>
    <linearGradient id="grad" x1="0" y1="0" x2="1" y2="1">
      <stop offset="0%" stop-color="#3B82F6"/>
      <stop offset="100%" stop-color="#8B5CF6"/>
    </linearGradient>
  </defs>
  <rect x="0" y="0" width="32" height="32" rx="8" fill="url(#grad)"/>
  <path d="M16 7C20.9706 7 25 8.34315 25 10C25 11.6569 20.9706 13 16 13C11.0294 13 7 11.6569 7 10C7 8.34315 11.0294 7 16 7Z" fill="white" fill-opacity="0.9"/>
  <path d="M25 10V22C25 23.6569 20.9706 25 16 25C11.0294 25 7 23.6569 7 22V10" stroke="white" stroke-width="2" stroke-linecap="round"/>
  <path d="M7 16C7 17.6569 11.0294 19 16 19C20.9706 19 25 17.6569 25 16" stroke="white" stroke-width="2" stroke-linecap="round"/>
</svg>
